<svg id="Слой_1" data-name="Слой 1" xmlns="http://www.w3.org/2000/svg" viewBox="0 0 168.32 106.44"><defs><style>.cls-1{fill:#131313;}.cls-2{fill:#fff;}.cls-3{fill:#ff5f00;}.cls-4{fill:#eb001b;}.cls-5{fill:#f79e1b;}</style></defs><title>Mastercard</title><rect id="_Path_" data-name=" Path " class="cls-1" width="168.32" height="106.44"/><path id="_Compound_Path_" data-name=" Compound Path " class="cls-2" d="M47,97.55v-6a3.49,3.49,0,0,0-3.18-3.77,2.79,2.79,0,0,0-.5,0A3.69,3.69,0,0,0,40,89.47a3.53,3.53,0,0,0-3.16-1.7,3.26,3.26,0,0,0-2.88,1.4V88H32v9.57h1.94v-5.5a2.3,2.3,0,0,1,2-2.53,2.41,2.41,0,0,1,.38,0c1.38,0,2.16.9,2.16,2.52v5.51h1.94V92.07a2.31,2.31,0,0,1,2.06-2.53,2.17,2.17,0,0,1,.36,0c1.42,0,2.18.9,2.18,2.52v5.51ZM78.16,88H74.68V85.1h-2V88h-2v1.74h2v4.53c0,2.22.78,3.54,3.24,3.54a4.88,4.88,0,0,0,2.6-.74l-.6-1.7a3.86,3.86,0,0,1-1.84.54c-1,0-1.46-.64-1.46-1.6V89.72h3.48Zm17.76-.24a3,3,0,0,0-2.6,1.4V88h-1.9v9.57h1.92v-5.4c0-1.58.76-2.6,2.12-2.6a3.41,3.41,0,0,1,1.3.24L97.4,88a4.44,4.44,0,0,0-1.48-.26Zm-26.85,1a7.13,7.13,0,0,0-3.9-1c-2.42,0-3.9,1.14-3.9,3,0,1.56,1.08,2.5,3.22,2.8l1,.14c1.14.16,1.76.56,1.76,1.1,0,.74-.84,1.22-2.26,1.22a5,5,0,0,1-3.18-1l-1,1.5A7.19,7.19,0,0,0,65,97.76c2.76,0,4.29-1.28,4.29-3.1S68.07,92.15,66,91.85l-1-.14c-.9-.12-1.7-.4-1.7-1s.76-1.18,1.9-1.18a6.09,6.09,0,0,1,3,.82Zm29,4a4.77,4.77,0,0,0,4.53,5h.47a5,5,0,0,0,3.44-1.14l-1-1.5A4.2,4.2,0,0,1,103,96a3.26,3.26,0,0,1,0-6.49,4.2,4.2,0,0,1,2.5.86l1-1.5a5,5,0,0,0-3.44-1.14,4.77,4.77,0,0,0-5,4.53,3.69,3.69,0,0,0,0,.47Zm-13.46-5c-2.8,0-4.73,2-4.73,5a4.7,4.7,0,0,0,4.41,5,3.53,3.53,0,0,0,.46,0,5.83,5.83,0,0,0,3.92-1.34l-1-1.42a4.61,4.61,0,0,1-2.78,1A2.82,2.82,0,0,1,82,93.55h7.15v-.8c0-3-1.82-5-4.51-5Zm0,1.78a2.44,2.44,0,0,1,2.52,2.36V92H82a2.56,2.56,0,0,1,2.64-2.42ZM58.7,92.77V88H56.78v1.16a3.78,3.78,0,0,0-3.1-1.4,5,5,0,1,0,0,10,3.78,3.78,0,0,0,3.1-1.4v1.16H58.7Zm-7.75,0a3,3,0,0,1,2.75-3.23H54A3.26,3.26,0,0,1,54,96a3,3,0,0,1-3-3,2.09,2.09,0,0,1,0-.25Zm73.89-5a3,3,0,0,0-2.6,1.4V88h-1.9v9.57h1.92v-5.4c0-1.58.76-2.6,2.12-2.6a3.41,3.41,0,0,1,1.3.24l.64-1.8a4.44,4.44,0,0,0-1.48-.26Zm15.42,8.42a1,1,0,0,1,.38.07,1,1,0,0,1,.52.5,1,1,0,0,1,0,.74,1,1,0,0,1-.52.5,1,1,0,0,1-1.28-.5,1,1,0,0,1,0-.74,1.11,1.11,0,0,1,.9-.6Zm0,1.69a.72.72,0,0,0,.29-.06.72.72,0,0,0,0-1.32.73.73,0,0,0-.58,0,.78.78,0,0,0-.24.16.74.74,0,0,0,0,1,.78.78,0,0,0,.24.16.7.7,0,0,0,.29,0Zm.06-1.19a.4.4,0,0,1,.26.08.28.28,0,0,1,0,.39.4.4,0,0,1-.21.09l.29.33h-.23l-.27-.33h-.09v.33h-.19V96.7Zm-.22.17v.24h.22a.24.24,0,0,0,.12,0,.14.14,0,0,0,0-.09.14.14,0,0,0,0-.09.24.24,0,0,0-.12,0Zm-22.63-4.07V88h-1.92v1.16a3.78,3.78,0,0,0-3.1-1.4,5,5,0,1,0,0,10,3.78,3.78,0,0,0,3.1-1.4v1.16h1.92Zm-7.75,0a3,3,0,0,1,2.75-3.23h.25a3.26,3.26,0,0,1,0,6.49,3,3,0,0,1-3-3,2.09,2.09,0,0,1,0-.25Zm27.07,0V84.14h-1.92v5a3.78,3.78,0,0,0-3.1-1.4,5,5,0,1,0,0,10.05,3.78,3.78,0,0,0,3.1-1.4v1.16h1.92Zm-7.75,0a3,3,0,0,1,2.75-3.23H132A3.26,3.26,0,0,1,132,96a3,3,0,0,1-3-3,1.93,1.93,0,0,1,0-.24Z"/><g id="_Group_" data-name=" Group "><rect class="cls-3" x="68.41" y="15.14" width="31.5" height="56.61"/><path id="_Path_2" data-name=" Path 2" class="cls-4" d="M70.41,43.45a35.94,35.94,0,0,1,13.75-28.3,36,36,0,1,0,0,56.61A35.94,35.94,0,0,1,70.41,43.45Z"/><path class="cls-5" d="M139,65.76V64.6h.47v-.24h-1.19v.24h.47v1.16Zm2.31,0v-1.4H141l-.42,1-.42-1h-.36v1.4H140V64.7l.39.91h.27l.39-.91v1.06Z"/><path class="cls-5" d="M142.41,43.45a36,36,0,0,1-58.25,28.3,36,36,0,0,0,0-56.61,36,36,0,0,1,58.25,28.3Z"/></g></svg>